<?xml version="1.0" encoding="UTF-8" standalone="no"?>
<!DOCTYPE svg PUBLIC "-//W3C//DTD SVG 1.1//EN"
 "http://www.w3.org/Graphics/SVG/1.1/DTD/svg11.dtd">
<!-- Generated by graphviz version 2.36.0 (20140111.2315)
 -->
<!-- Title: G Pages: 1 -->
<svg width="830pt" height="1024pt"
 viewBox="0.00 0.00 830.00 1024.00" xmlns="http://www.w3.org/2000/svg" xmlns:xlink="http://www.w3.org/1999/xlink">
<g id="graph0" class="graph" transform="scale(1 1) rotate(0) translate(4 1020)">
<title>G</title>
<polygon fill="white" stroke="none" points="-4,4 -4,-1020 826,-1020 826,4 -4,4"/>
<!-- request -->
<g id="node1" class="node"><title>request</title>
<polygon fill="none" stroke="black" points="293.517,-992.438 338,-980 382.483,-992.438 382.442,-1012.56 293.558,-1012.56 293.517,-992.438"/>
<text text-anchor="middle" x="338" y="-994.3" font-family="Times,serif" font-size="14.00">request</text>
</g>
<!-- vcl_recv -->
<g id="node3" class="node"><title>vcl_recv</title>
<ellipse fill="none" stroke="black" cx="338" cy="-924" rx="40.4202" ry="18"/>
<text text-anchor="middle" x="338" y="-920.3" font-family="Times,serif" font-size="14.00">vcl_recv</text>
</g>
<!-- request&#45;&gt;vcl_recv -->
<g id="edge1" class="edge"><title>request&#45;&gt;vcl_recv</title>
<path fill="none" stroke="black" stroke-width="2" d="M338,-979.937C338,-971.807 338,-961.876 338,-952.705"/>
<polygon fill="black" stroke="black" stroke-width="2" points="341.5,-952.441 338,-942.441 334.5,-952.441 341.5,-952.441"/>
</g>
<!-- response -->
<g id="node2" class="node"><title>response</title>
<polygon fill="none" stroke="black" points="288.876,-12.4377 340,7.10543e-15 391.124,-12.4377 391.077,-32.5623 288.923,-32.5623 288.876,-12.4377"/>
<text text-anchor="middle" x="340" y="-14.3" font-family="Times,serif" font-size="14.00">response</text>
</g>
<!-- vcl_hash -->
<g id="node4" class="node"><title>vcl_hash</title>
<ellipse fill="none" stroke="black" cx="309" cy="-836" rx="42.3701" ry="18"/>
<text text-anchor="middle" x="309" y="-832.3" font-family="Times,serif" font-size="14.00">vcl_hash</text>
</g>
<!-- vcl_recv&#45;&gt;vcl_hash -->
<g id="edge2" class="edge"><title>vcl_recv&#45;&gt;vcl_hash</title>
<path fill="none" stroke="black" d="M332.271,-906.009C328.179,-893.877 322.596,-877.32 317.924,-863.465"/>
<polygon fill="black" stroke="black" points="321.229,-862.313 314.718,-853.956 314.596,-864.55 321.229,-862.313"/>
<text text-anchor="middle" x="347" y="-876.3" font-family="Times,serif" font-size="14.00">(purge)</text>
</g>
<!-- vcl_recv&#45;&gt;vcl_hash -->
<g id="edge3" class="edge"><title>vcl_recv&#45;&gt;vcl_hash</title>
<path fill="none" stroke="red" d="M308.557,-911.389C298.609,-905.881 288.61,-898.219 283,-888 278.194,-879.244 281.168,-869.503 286.555,-860.9"/>
<polygon fill="red" stroke="red" points="289.441,-862.884 292.547,-852.754 283.802,-858.736 289.441,-862.884"/>
<text text-anchor="middle" x="300" y="-876.3" font-family="Times,serif" font-size="14.00">(hash)</text>
</g>
<!-- vcl_pass -->
<g id="node5" class="node"><title>vcl_pass</title>
<ellipse fill="none" stroke="black" cx="571" cy="-572" rx="40.4202" ry="18"/>
<text text-anchor="middle" x="571" y="-568.3" font-family="Times,serif" font-size="14.00">vcl_pass</text>
</g>
<!-- vcl_recv&#45;&gt;vcl_pass -->
<g id="edge4" class="edge"><title>vcl_recv&#45;&gt;vcl_pass</title>
<path fill="none" stroke="red" d="M377.941,-920.472C443.068,-915.917 568.994,-905.174 610,-888 643.869,-873.815 675,-873.72 675,-837 675,-837 675,-837 675,-659 675,-624.54 640.67,-601.289 611.458,-587.742"/>
<polygon fill="red" stroke="red" points="612.767,-584.494 602.203,-583.683 609.955,-590.905 612.767,-584.494"/>
<text text-anchor="middle" x="691.5" y="-744.3" font-family="Times,serif" font-size="14.00">(pass)</text>
</g>
<!-- vcl_pipe -->
<g id="node6" class="node"><title>vcl_pipe</title>
<ellipse fill="none" stroke="black" cx="40" cy="-308" rx="40.4202" ry="18"/>
<text text-anchor="middle" x="40" y="-304.3" font-family="Times,serif" font-size="14.00">vcl_pipe</text>
</g>
<!-- vcl_recv&#45;&gt;vcl_pipe -->
<g id="edge5" class="edge"><title>vcl_recv&#45;&gt;vcl_pipe</title>
<path fill="none" stroke="red" d="M298.428,-919.91C217.366,-912.489 40,-890.174 40,-837 40,-837 40,-837 40,-395 40,-375.404 40,-353.296 40,-336.402"/>
<polygon fill="red" stroke="red" points="43.5001,-336.133 40,-326.133 36.5001,-336.133 43.5001,-336.133"/>
<text text-anchor="middle" x="56.5" y="-612.3" font-family="Times,serif" font-size="14.00">(pipe)</text>
</g>
<!-- vcl_synth -->
<g id="node7" class="node"><title>vcl_synth</title>
<ellipse fill="none" stroke="black" cx="328" cy="-200" rx="44.271" ry="18"/>
<text text-anchor="middle" x="328" y="-196.3" font-family="Times,serif" font-size="14.00">vcl_synth</text>
</g>
<!-- vcl_recv&#45;&gt;vcl_synth -->
<g id="edge6" class="edge"><title>vcl_recv&#45;&gt;vcl_synth</title>
<path fill="none" stroke="black" stroke-dasharray="5,2" d="M299.761,-917.903C255.319,-909.582 188,-888.481 188,-837 188,-837 188,-837 188,-703 188,-652.582 180.224,-640.369 178,-590 170.998,-431.441 123.364,-357.902 225,-236 237.558,-220.938 256.875,-212.336 275.401,-207.432"/>
<polygon fill="black" stroke="black" points="276.326,-210.81 285.27,-205.13 274.736,-203.993 276.326,-210.81"/>
<text text-anchor="middle" x="197.5" y="-568.3" font-family="Times,serif" font-size="14.00">(synth)</text>
</g>
<!-- lookup -->
<g id="node11" class="node"><title>lookup</title>
<polygon fill="none" stroke="black" points="331,-766 277,-766 277,-730 331,-730 331,-766"/>
<text text-anchor="middle" x="304" y="-744.3" font-family="Times,serif" font-size="14.00">lookup</text>
</g>
<!-- vcl_hash&#45;&gt;lookup -->
<g id="edge17" class="edge"><title>vcl_hash&#45;&gt;lookup</title>
<path fill="none" stroke="red" d="M306.072,-817.962C305.225,-812.269 304.418,-805.878 304,-800 303.448,-792.228 303.275,-783.773 303.286,-776.023"/>
<polygon fill="red" stroke="red" points="306.786,-776.06 303.397,-766.021 299.787,-775.982 306.786,-776.06"/>
<text text-anchor="middle" x="337.5" y="-788.3" font-family="Times,serif" font-size="14.00">purge | hash</text>
</g>
<!-- vcl_pass&#45;&gt;vcl_recv -->
<g id="edge8" class="edge"><title>vcl_pass&#45;&gt;vcl_recv</title>
<path fill="none" stroke="black" stroke-dasharray="1,5" d="M578.91,-589.716C586.234,-606.748 596,-634.122 596,-659 596,-837 596,-837 596,-837 596,-880.628 461.544,-906.084 386.761,-916.868"/>
<polygon fill="black" stroke="black" points="386.041,-913.435 376.625,-918.293 387.015,-920.367 386.041,-913.435"/>
<text text-anchor="middle" x="617.5" y="-744.3" font-family="Times,serif" font-size="14.00">(restart)</text>
</g>
<!-- vcl_pass&#45;&gt;vcl_synth -->
<g id="edge9" class="edge"><title>vcl_pass&#45;&gt;vcl_synth</title>
<path fill="none" stroke="black" stroke-dasharray="5,2" d="M576.064,-553.901C589.023,-506.338 618.176,-370.683 556,-290 540.042,-269.292 523.031,-284.37 500,-272 477.436,-259.881 477.814,-247.641 455,-236 431.025,-223.766 402.253,-215.384 378.162,-209.897"/>
<polygon fill="black" stroke="black" points="378.667,-206.425 368.151,-207.72 377.179,-213.265 378.667,-206.425"/>
<text text-anchor="middle" x="614.5" y="-392.3" font-family="Times,serif" font-size="14.00">(synth)</text>
</g>
<!-- vcl_backend_fetch -->
<g id="node13" class="node"><title>vcl_backend_fetch</title>
<ellipse fill="lightgrey" stroke="lightgrey" cx="389" cy="-484" rx="77.0154" ry="18"/>
<text text-anchor="middle" x="389" y="-480.3" font-family="Times,serif" font-size="14.00">vcl_backend_fetch</text>
</g>
<!-- vcl_pass&#45;&gt;vcl_backend_fetch -->
<g id="edge32" class="edge"><title>vcl_pass&#45;&gt;vcl_backend_fetch</title>
<path fill="none" stroke="red" d="M544.145,-558.31C514.319,-544.217 465.788,-521.284 430.943,-504.819"/>
<polygon fill="red" stroke="red" points="432.042,-501.467 421.505,-500.36 429.051,-507.796 432.042,-501.467"/>
<text text-anchor="middle" x="515.5" y="-524.3" font-family="Times,serif" font-size="14.00">(fetch)</text>
</g>
<!-- vcl_pipe&#45;&gt;vcl_synth -->
<g id="edge7" class="edge"><title>vcl_pipe&#45;&gt;vcl_synth</title>
<path fill="none" stroke="black" stroke-dasharray="5,2" d="M40.0659,-289.861C41.1209,-273.447 45.4576,-249.272 61,-236 91.9838,-209.541 204.552,-202.887 273.245,-201.335"/>
<polygon fill="black" stroke="black" points="273.531,-204.83 283.46,-201.134 273.393,-197.831 273.531,-204.83"/>
<text text-anchor="middle" x="80.5" y="-250.3" font-family="Times,serif" font-size="14.00">(synth)</text>
</g>
<!-- pipe mode -->
<g id="node17" class="node"><title>pipe mode</title>
<polygon fill="lightgrey" stroke="lightgrey" points="183,-164 109,-164 109,-128 183,-128 183,-164"/>
<text text-anchor="middle" x="146" y="-142.3" font-family="Times,serif" font-size="14.00">pipe mode</text>
</g>
<!-- vcl_pipe&#45;&gt;pipe mode -->
<g id="edge34" class="edge"><title>vcl_pipe&#45;&gt;pipe mode</title>
<path fill="none" stroke="red" d="M20.341,-291.905C14.6034,-286.342 9.05768,-279.536 6,-272 -0.0156662,-257.174 -1.70259,-250.024 6,-236 25.7495,-200.043 66.8636,-176.546 99.4534,-162.775"/>
<polygon fill="red" stroke="red" points="100.872,-165.977 108.827,-158.979 98.244,-159.489 100.872,-165.977"/>
<text text-anchor="middle" x="22.5" y="-250.3" font-family="Times,serif" font-size="14.00">(pipe)</text>
</g>
<!-- vcl_synth&#45;&gt;vcl_recv -->
<g id="edge26" class="edge"><title>vcl_synth&#45;&gt;vcl_recv</title>
<path fill="none" stroke="black" stroke-dasharray="1,5" d="M304.15,-215.336C277.787,-233.203 239,-266.39 239,-307 239,-837 239,-837 239,-837 239,-870.239 271.199,-893.536 298.87,-907.421"/>
<polygon fill="black" stroke="black" points="297.493,-910.641 308.028,-911.769 300.496,-904.318 297.493,-910.641"/>
<text text-anchor="middle" x="260.5" y="-568.3" font-family="Times,serif" font-size="14.00">(restart)</text>
</g>
<!-- vcl_deliver -->
<g id="node9" class="node"><title>vcl_deliver</title>
<ellipse fill="none" stroke="black" cx="494" cy="-92" rx="50.0684" ry="18"/>
<text text-anchor="middle" x="494" y="-88.3" font-family="Times,serif" font-size="14.00">vcl_deliver</text>
</g>
<!-- vcl_synth&#45;&gt;vcl_deliver -->
<g id="edge25" class="edge"><title>vcl_synth&#45;&gt;vcl_deliver</title>
<path fill="none" stroke="black" d="M354.1,-185.269C365.123,-179.154 377.94,-171.62 389,-164 409.806,-149.664 412.194,-142.336 433,-128 440.9,-122.556 449.698,-117.157 458.098,-112.288"/>
<polygon fill="black" stroke="black" points="460.028,-115.217 466.995,-107.235 456.571,-109.13 460.028,-115.217"/>
<text text-anchor="middle" x="456.5" y="-142.3" font-family="Times,serif" font-size="14.00">(deliver)</text>
</g>
<!-- vcl_hit -->
<g id="node8" class="node"><title>vcl_hit</title>
<ellipse fill="none" stroke="black" cx="459" cy="-660" rx="35.1455" ry="18"/>
<text text-anchor="middle" x="459" y="-656.3" font-family="Times,serif" font-size="14.00">vcl_hit</text>
</g>
<!-- vcl_hit&#45;&gt;vcl_recv -->
<g id="edge12" class="edge"><title>vcl_hit&#45;&gt;vcl_recv</title>
<path fill="none" stroke="black" stroke-dasharray="1,5" d="M458.311,-678.042C455.782,-719.121 443.982,-824.866 389,-888 383.957,-893.79 377.753,-899.076 371.43,-903.688"/>
<polygon fill="black" stroke="black" points="369.127,-901.022 362.831,-909.543 373.066,-906.808 369.127,-901.022"/>
<text text-anchor="middle" x="462.5" y="-788.3" font-family="Times,serif" font-size="14.00">(restart)</text>
</g>
<!-- vcl_hit&#45;&gt;vcl_pass -->
<g id="edge11" class="edge"><title>vcl_hit&#45;&gt;vcl_pass</title>
<path fill="none" stroke="black" d="M485.466,-647.933C498.365,-641.872 513.707,-633.632 526,-624 535.678,-616.417 544.928,-606.565 552.497,-597.545"/>
<polygon fill="black" stroke="black" points="555.37,-599.559 558.939,-589.584 549.928,-595.156 555.37,-599.559"/>
<text text-anchor="middle" x="559.5" y="-612.3" font-family="Times,serif" font-size="14.00">(pass)</text>
</g>
<!-- vcl_hit&#45;&gt;vcl_synth -->
<g id="edge13" class="edge"><title>vcl_hit&#45;&gt;vcl_synth</title>
<path fill="none" stroke="black" stroke-dasharray="5,2" d="M462.93,-642.095C465.982,-628.192 470.017,-607.932 472,-590 478.06,-535.207 492.185,-518.38 475,-466 469.153,-448.178 461.565,-446.767 450,-432 443.579,-423.801 440.929,-422.561 435,-414 409.389,-377.019 405.463,-366.06 385,-326 367.854,-292.435 350.157,-252.679 339.122,-227.164"/>
<polygon fill="black" stroke="black" points="342.263,-225.608 335.097,-217.804 335.832,-228.373 342.263,-225.608"/>
<text text-anchor="middle" x="484.5" y="-436.3" font-family="Times,serif" font-size="14.00">(synth)</text>
</g>
<!-- vcl_hit&#45;&gt;vcl_deliver -->
<g id="edge10" class="edge"><title>vcl_hit&#45;&gt;vcl_deliver</title>
<path fill="none" stroke="red" d="M492.552,-654.4C559.652,-644.257 704,-617.29 704,-573 704,-573 704,-573 704,-199 704,-130.816 614.682,-106.483 552.546,-97.8041"/>
<polygon fill="red" stroke="red" points="552.809,-94.3089 542.442,-96.4954 551.909,-101.251 552.809,-94.3089"/>
<text text-anchor="middle" x="727.5" y="-392.3" font-family="Times,serif" font-size="14.00">(deliver)</text>
</g>
<!-- vcl_hit&#45;&gt;vcl_backend_fetch -->
<g id="edge30" class="edge"><title>vcl_hit&#45;&gt;vcl_backend_fetch</title>
<path fill="none" stroke="red" d="M452.288,-642.316C440.121,-612.071 414.33,-547.962 399.706,-511.612"/>
<polygon fill="red" stroke="red" points="402.877,-510.117 395.898,-502.146 396.383,-512.73 402.877,-510.117"/>
<text text-anchor="middle" x="449.5" y="-568.3" font-family="Times,serif" font-size="14.00">(fetch)</text>
</g>
<!-- vcl_deliver&#45;&gt;response -->
<g id="edge33" class="edge"><title>vcl_deliver&#45;&gt;response</title>
<path fill="none" stroke="red" stroke-width="2" d="M464.671,-77.2879C440.159,-65.8276 405.02,-49.3991 378.292,-36.9026"/>
<polygon fill="red" stroke="red" stroke-width="2" points="379.761,-33.7258 369.22,-32.6611 376.796,-40.067 379.761,-33.7258"/>
</g>
<!-- vcl_deliver&#45;&gt;vcl_recv -->
<g id="edge24" class="edge"><title>vcl_deliver&#45;&gt;vcl_recv</title>
<path fill="none" stroke="black" stroke-dasharray="1,5" d="M543.508,-95.1014C584.38,-98.3899 643.079,-106.762 690,-128 736.098,-148.865 779,-148.4 779,-199 779,-837 779,-837 779,-837 779,-915.748 504.68,-923.775 388.75,-923.651"/>
<polygon fill="black" stroke="black" points="388.709,-920.151 378.698,-923.62 388.687,-927.151 388.709,-920.151"/>
<text text-anchor="middle" x="800.5" y="-524.3" font-family="Times,serif" font-size="14.00">(restart)</text>
</g>
<!-- vcl_deliver&#45;&gt;vcl_synth -->
<g id="edge23" class="edge"><title>vcl_deliver&#45;&gt;vcl_synth</title>
<path fill="none" stroke="black" stroke-dasharray="5,2" d="M443.831,-93.2149C413.113,-95.9708 375.028,-104.478 350,-128 338.044,-139.236 332.538,-156.824 330.023,-171.683"/>
<polygon fill="black" stroke="black" points="326.515,-171.518 328.672,-181.891 333.454,-172.437 326.515,-171.518"/>
<text text-anchor="middle" x="369.5" y="-142.3" font-family="Times,serif" font-size="14.00">(synth)</text>
</g>
<!-- vcl_miss -->
<g id="node10" class="node"><title>vcl_miss</title>
<ellipse fill="none" stroke="black" cx="356" cy="-660" rx="42.3701" ry="18"/>
<text text-anchor="middle" x="356" y="-656.3" font-family="Times,serif" font-size="14.00">vcl_miss</text>
</g>
<!-- vcl_miss&#45;&gt;vcl_recv -->
<g id="edge15" class="edge"><title>vcl_miss&#45;&gt;vcl_recv</title>
<path fill="none" stroke="black" stroke-dasharray="1,5" d="M369.378,-677.089C373.265,-682.719 376.999,-689.313 379,-696 381.038,-702.813 379.161,-704.891 379,-712 377.222,-790.283 401.544,-815.9 371,-888 369.192,-892.268 366.617,-896.33 363.692,-900.076"/>
<polygon fill="black" stroke="black" points="360.921,-897.926 356.894,-907.725 366.153,-902.576 360.921,-897.926"/>
<text text-anchor="middle" x="407.5" y="-788.3" font-family="Times,serif" font-size="14.00">(restart)</text>
</g>
<!-- vcl_miss&#45;&gt;vcl_pass -->
<g id="edge14" class="edge"><title>vcl_miss&#45;&gt;vcl_pass</title>
<path fill="none" stroke="black" d="M385.895,-647.042C424.217,-631.713 490.713,-605.115 532.704,-588.318"/>
<polygon fill="black" stroke="black" points="534.061,-591.545 542.046,-584.582 531.461,-585.046 534.061,-591.545"/>
<text text-anchor="middle" x="499.5" y="-612.3" font-family="Times,serif" font-size="14.00">(pass)</text>
</g>
<!-- vcl_miss&#45;&gt;vcl_synth -->
<g id="edge16" class="edge"><title>vcl_miss&#45;&gt;vcl_synth</title>
<path fill="none" stroke="black" stroke-dasharray="5,2" d="M346.439,-642.383C326.854,-606.728 284,-519.72 284,-441 284,-441 284,-441 284,-307 284,-277.494 298.723,-246.654 311.136,-225.898"/>
<polygon fill="black" stroke="black" points="314.124,-227.721 316.44,-217.382 308.182,-224.02 314.124,-227.721"/>
<text text-anchor="middle" x="304.5" y="-436.3" font-family="Times,serif" font-size="14.00">(synth)</text>
</g>
<!-- vcl_miss&#45;&gt;vcl_backend_fetch -->
<g id="edge31" class="edge"><title>vcl_miss&#45;&gt;vcl_backend_fetch</title>
<path fill="none" stroke="red" d="M357.569,-641.785C359.64,-620.887 363.77,-584.637 370,-554 372.844,-540.017 376.96,-524.693 380.634,-512.046"/>
<polygon fill="red" stroke="red" points="384.084,-512.723 383.579,-502.14 377.375,-510.728 384.084,-512.723"/>
<text text-anchor="middle" x="388.5" y="-568.3" font-family="Times,serif" font-size="14.00">(fetch)</text>
</g>
<!-- lookup&#45;&gt;vcl_hit -->
<g id="edge19" class="edge"><title>lookup&#45;&gt;vcl_hit</title>
<path fill="none" stroke="red" d="M331.354,-731.823C358.058,-717.006 398.683,-694.466 426.902,-678.809"/>
<polygon fill="red" stroke="red" points="428.912,-681.697 435.958,-673.784 425.516,-675.576 428.912,-681.697"/>
<text text-anchor="middle" x="408.5" y="-700.3" font-family="Times,serif" font-size="14.00">hash</text>
</g>
<!-- lookup&#45;&gt;vcl_miss -->
<g id="edge20" class="edge"><title>lookup&#45;&gt;vcl_miss</title>
<path fill="none" stroke="red" d="M301.009,-729.921C300.04,-719.505 300.396,-706.267 306,-696 309.411,-689.751 314.475,-684.371 320.091,-679.835"/>
<polygon fill="red" stroke="red" points="322.466,-682.44 328.583,-673.789 318.407,-676.738 322.466,-682.44"/>
<text text-anchor="middle" x="318.5" y="-700.3" font-family="Times,serif" font-size="14.00">hash</text>
</g>
<!-- vcl_purge -->
<g id="node12" class="node"><title>vcl_purge</title>
<ellipse fill="none" stroke="black" cx="114" cy="-660" rx="46.2191" ry="18"/>
<text text-anchor="middle" x="114" y="-656.3" font-family="Times,serif" font-size="14.00">vcl_purge</text>
</g>
<!-- lookup&#45;&gt;vcl_purge -->
<g id="edge18" class="edge"><title>lookup&#45;&gt;vcl_purge</title>
<path fill="none" stroke="black" d="M276.778,-734.678C244.187,-719.927 189.389,-695.124 152.479,-678.417"/>
<polygon fill="black" stroke="black" points="153.595,-675.08 143.041,-674.145 150.708,-681.457 153.595,-675.08"/>
<text text-anchor="middle" x="242.5" y="-700.3" font-family="Times,serif" font-size="14.00">purge</text>
</g>
<!-- vcl_purge&#45;&gt;vcl_recv -->
<g id="edge22" class="edge"><title>vcl_purge&#45;&gt;vcl_recv</title>
<path fill="none" stroke="black" stroke-dasharray="1,5" d="M112.377,-677.994C109.295,-721.377 107.992,-836.424 174,-888 191.696,-901.827 247.627,-911.7 289.28,-917.363"/>
<polygon fill="black" stroke="black" points="288.891,-920.842 299.263,-918.678 289.805,-913.902 288.891,-920.842"/>
<text text-anchor="middle" x="143.5" y="-788.3" font-family="Times,serif" font-size="14.00">(restart)</text>
</g>
<!-- vcl_purge&#45;&gt;vcl_synth -->
<g id="edge21" class="edge"><title>vcl_purge&#45;&gt;vcl_synth</title>
<path fill="none" stroke="black" stroke-dasharray="5,2" d="M114,-641.867C114,-624.51 114,-596.889 114,-573 114,-573 114,-573 114,-307 114,-270.781 124.694,-257.283 154,-236 173.083,-222.141 231.558,-212.342 275.492,-206.703"/>
<polygon fill="black" stroke="black" points="275.978,-210.17 285.469,-205.461 275.113,-203.223 275.978,-210.17"/>
<text text-anchor="middle" x="133.5" y="-436.3" font-family="Times,serif" font-size="14.00">(synth)</text>
</g>
<!-- vcl_backend_fetch&#45;&gt;vcl_synth -->
<g id="edge36" class="edge"><title>vcl_backend_fetch&#45;&gt;vcl_synth</title>
<path fill="none" stroke="black" stroke-dasharray="5,2" d="M378.983,-465.789C366.093,-442.631 344.258,-399.749 335,-360 324.515,-314.985 324.744,-260.91 326.161,-228.835"/>
<polygon fill="black" stroke="black" points="329.677,-228.626 326.697,-218.459 322.686,-228.265 329.677,-228.626"/>
<text text-anchor="middle" x="362.5" y="-348.3" font-family="Times,serif" font-size="14.00">(abandon)</text>
</g>
<!-- fetch -->
<g id="node14" class="node"><title>fetch</title>
<polygon fill="lightgrey" stroke="lightgrey" points="498,-414 444,-414 444,-378 498,-378 498,-414"/>
<text text-anchor="middle" x="471" y="-392.3" font-family="Times,serif" font-size="14.00">fetch</text>
</g>
<!-- vcl_backend_fetch&#45;&gt;fetch -->
<g id="edge27" class="edge"><title>vcl_backend_fetch&#45;&gt;fetch</title>
<path fill="none" stroke="red" d="M394.173,-465.926C398.054,-455.254 404.218,-441.738 413,-432 419.181,-425.147 427.022,-419.207 434.924,-414.263"/>
<polygon fill="red" stroke="red" points="436.902,-417.162 443.788,-409.111 433.384,-411.111 436.902,-417.162"/>
<text text-anchor="middle" x="431.5" y="-436.3" font-family="Times,serif" font-size="14.00">(fetch)</text>
</g>
<!-- vcl_backend_response -->
<g id="node15" class="node"><title>vcl_backend_response</title>
<ellipse fill="lightgrey" stroke="lightgrey" cx="599" cy="-254" rx="90.0136" ry="18"/>
<text text-anchor="middle" x="599" y="-250.3" font-family="Times,serif" font-size="14.00">vcl_backend_response</text>
</g>
<!-- fetch&#45;&gt;vcl_backend_response -->
<g id="edge28" class="edge"><title>fetch&#45;&gt;vcl_backend_response</title>
<path fill="none" stroke="red" d="M496.389,-377.97C514.397,-365.086 538.394,-346.206 556,-326 567.768,-312.493 578.247,-295.362 585.913,-281.312"/>
<polygon fill="red" stroke="red" points="589.173,-282.635 590.753,-272.159 582.984,-279.363 589.173,-282.635"/>
</g>
<!-- vcl_backend_error -->
<g id="node16" class="node"><title>vcl_backend_error</title>
<ellipse fill="lightgrey" stroke="lightgrey" cx="471" cy="-308" rx="76.5394" ry="18"/>
<text text-anchor="middle" x="471" y="-304.3" font-family="Times,serif" font-size="14.00">vcl_backend_error</text>
</g>
<!-- fetch&#45;&gt;vcl_backend_error -->
<g id="edge29" class="edge"><title>fetch&#45;&gt;vcl_backend_error</title>
<path fill="none" stroke="black" d="M471,-377.597C471,-365.746 471,-349.817 471,-336.292"/>
<polygon fill="black" stroke="black" points="474.5,-336.084 471,-326.084 467.5,-336.084 474.5,-336.084"/>
</g>
<!-- vcl_backend_response&#45;&gt;vcl_deliver -->
<g id="edge39" class="edge"><title>vcl_backend_response&#45;&gt;vcl_deliver</title>
<path fill="none" stroke="red" d="M587.763,-235.877C569.29,-207.728 532.405,-151.522 510.813,-118.619"/>
<polygon fill="red" stroke="red" points="513.569,-116.44 505.156,-110 507.716,-120.28 513.569,-116.44"/>
<text text-anchor="middle" x="598.5" y="-196.3" font-family="Times,serif" font-size="14.00">(deliver)</text>
</g>
<!-- vcl_backend_error&#45;&gt;vcl_synth -->
<g id="edge38" class="edge"><title>vcl_backend_error&#45;&gt;vcl_synth</title>
<path fill="none" stroke="black" stroke-dasharray="5,2" d="M431.78,-292.342C420.727,-287.024 409.216,-280.249 400,-272 385.853,-259.336 390.074,-249.768 377,-236 372.067,-230.805 366.263,-225.883 360.409,-221.46"/>
<polygon fill="black" stroke="black" points="362.06,-218.338 351.891,-215.364 357.986,-224.03 362.06,-218.338"/>
<text text-anchor="middle" x="427.5" y="-250.3" font-family="Times,serif" font-size="14.00">(abandon)</text>
</g>
<!-- vcl_backend_error&#45;&gt;vcl_deliver -->
<g id="edge37" class="edge"><title>vcl_backend_error&#45;&gt;vcl_deliver</title>
<path fill="none" stroke="black" d="M472.843,-289.849C476.822,-252.832 486.242,-165.181 491.057,-120.386"/>
<polygon fill="black" stroke="black" points="494.559,-120.549 492.148,-110.232 487.599,-119.801 494.559,-120.549"/>
<text text-anchor="middle" x="508.5" y="-196.3" font-family="Times,serif" font-size="14.00">(deliver)</text>
</g>
<!-- pipe mode&#45;&gt;response -->
<g id="edge35" class="edge"><title>pipe mode&#45;&gt;response</title>
<path fill="none" stroke="red" d="M172.568,-127.744C208.691,-104.283 273.087,-62.4589 310.615,-38.0849"/>
<polygon fill="red" stroke="red" points="312.615,-40.9598 319.095,-32.5777 308.802,-35.0893 312.615,-40.9598"/>
</g>
</g>
</svg>
